<svg width="24" height="16" viewBox="0 0 24 16" fill="none" xmlns="http://www.w3.org/2000/svg">
<rect x="0.5" y="0.5" width="23" height="15" rx="3.5" fill="white"/>
<g clip-path="url(#clip0_886_4169)">
<path d="M17.6915 13.7372H6.26294V2.30859H17.6915V13.7372Z" fill="white"/>
<path d="M17.6915 13.7372V11.9263H16.3128L15.6029 11.1413L14.8895 11.9263H10.3436V8.26807H8.87633L10.6963 4.14937H12.4514L13.078 5.56036V4.14937H15.2505L15.6277 5.21264L16.0074 4.14937H17.6915V2.30859H6.26294V13.7372H17.6915ZM16.545 11.4682H17.6915L16.1749 9.85993L17.6915 8.2699H16.5632L15.6266 9.29339L14.699 8.2699H13.5522L15.06 9.86907L13.5522 11.4682H14.6671L15.6083 10.4356L16.545 11.4682ZM16.8132 9.86128L17.6915 10.7957V8.9347L16.8132 9.86128ZM11.7018 10.7281V10.23H13.5065V9.50809H11.7018V9.0101H13.5522V8.2699H10.829V11.4682H13.5522V10.7281H11.7018ZM16.8279 7.80576H17.6915V4.6074H16.3482L15.6308 6.59947L14.918 4.6074H13.5519V7.80576H14.4154V5.56692L15.2379 7.80576H16.0055L16.8279 5.56231V7.80576ZM12.5696 7.80576H13.5519L12.1402 4.6074H11.0161L9.60422 7.80576H10.5637L10.8288 7.1661H12.3L12.5696 7.80576ZM11.9985 6.44873H11.1303L11.5644 5.40242L11.9985 6.44873Z" fill="#006FCF"/>
</g>
<rect x="0.5" y="0.5" width="23" height="15" rx="3.5" stroke="#CCD2D8"/>
<defs>
<clipPath id="clip0_886_4169">
<rect width="12" height="12" fill="white" transform="translate(6 2)"/>
</clipPath>
</defs>
</svg>
