<svg width="24" height="16" viewBox="0 0 24 16" fill="none" xmlns="http://www.w3.org/2000/svg">
<g clip-path="url(#clip0_358_48)">
<path d="M0 4C0 1.79086 1.79086 0 4 0H20C22.2091 0 24 1.79086 24 4V12C24 14.2091 22.2091 16 20 16H4C1.79086 16 0 14.2091 0 12V4Z" fill="white"/>
<g clip-path="url(#clip1_358_48)">
<path d="M0.339005 0H23.6606V16H0.339005V0Z" fill="#29ABE2"/>
<path d="M0.339005 0H23.6606V16H0.339005V0Z" fill="url(#paint0_radial_358_48)"/>
<path d="M0.339005 0H23.6606V16H0.339005V0Z" fill="url(#paint1_radial_358_48)"/>
<path d="M13.0176 3.40083H19.2467C19.8239 3.40083 20.3774 3.63011 20.7855 4.03823C21.1936 4.44635 21.4229 4.99987 21.4229 5.57704C21.4229 6.15421 21.1936 6.70774 20.7855 7.11586C20.3774 7.52397 19.8239 7.75325 19.2467 7.75325H13.0176V3.40083ZM13.0176 8.24665H19.2467C19.8239 8.24665 20.3774 8.47592 20.7855 8.88404C21.1936 9.29216 21.4229 9.84569 21.4229 10.4229C21.4229 11 21.1936 11.5536 20.7855 11.9617C20.3774 12.3698 19.8239 12.5991 19.2467 12.5991H13.0176V8.24665ZM7.59032 8.24665V7.75325H12.6035C12.4769 6.52679 11.8883 5.39447 10.9572 4.58613C10.0262 3.7778 8.82242 3.35403 7.59032 3.40083C6.31625 3.34826 5.07328 3.80276 4.13365 4.66478C3.19401 5.52681 2.6343 6.72608 2.5771 7.99995C2.6343 9.27381 3.19401 10.4731 4.13365 11.3351C5.07328 12.1971 6.31625 12.6516 7.59032 12.5991C8.82242 12.6459 10.0262 12.2221 10.9572 11.4138C11.8883 10.6054 12.4769 9.47311 12.6035 8.24665H7.59032Z" fill="white"/>
</g>
</g>
<path d="M0.5 4C0.5 2.067 2.067 0.5 4 0.5H20C21.933 0.5 23.5 2.067 23.5 4V12C23.5 13.933 21.933 15.5 20 15.5H4C2.067 15.5 0.5 13.933 0.5 12V4Z" stroke="#CCD2D8"/>
<defs>
<radialGradient id="paint0_radial_358_48" cx="0" cy="0" r="1" gradientUnits="userSpaceOnUse" gradientTransform="translate(1.63416 15.5716) scale(23.6388 22.2204)">
<stop offset="0.09" stop-color="#009245"/>
<stop offset="0.23" stop-color="#049552" stop-opacity="0.89"/>
<stop offset="0.52" stop-color="#0D9E74" stop-opacity="0.59"/>
<stop offset="0.91" stop-color="#1BACAB" stop-opacity="0.12"/>
<stop offset="1" stop-color="#1FB0B8" stop-opacity="0"/>
</radialGradient>
<radialGradient id="paint1_radial_358_48" cx="0" cy="0" r="1" gradientUnits="userSpaceOnUse" gradientTransform="translate(5.52843 16.9427) scale(30.326 30.326)">
<stop offset="0.15" stop-color="#1FB0B8" stop-opacity="0"/>
<stop offset="0.35" stop-color="#1C7491" stop-opacity="0.4"/>
<stop offset="0.56" stop-color="#1A4471" stop-opacity="0.73"/>
<stop offset="0.74" stop-color="#18265E" stop-opacity="0.93"/>
<stop offset="0.87" stop-color="#181B57"/>
</radialGradient>
<clipPath id="clip0_358_48">
<path d="M0 4C0 1.79086 1.79086 0 4 0H20C22.2091 0 24 1.79086 24 4V12C24 14.2091 22.2091 16 20 16H4C1.79086 16 0 14.2091 0 12V4Z" fill="white"/>
</clipPath>
<clipPath id="clip1_358_48">
<rect x="0.338196" width="23.3236" height="16" rx="2" fill="white"/>
</clipPath>
</defs>
</svg>
