<svg width="36" height="24" viewBox="0 0 36 24" fill="none" xmlns="http://www.w3.org/2000/svg">
<rect x="0.75" y="0.75" width="34.5" height="22.5" rx="5.25" fill="white"/>
<path d="M7.875 6.375C7.875 5.14453 8.85938 4.125 10.125 4.125H25.875C27.1055 4.125 28.125 5.14453 28.125 6.375V17.625C28.125 18.8906 27.1055 19.875 25.875 19.875H10.125C8.85938 19.875 7.875 18.8906 7.875 17.625V6.375ZM11.8125 13.125C11.4961 13.125 11.25 13.4062 11.25 13.6875C11.25 14.0039 11.4961 14.25 11.8125 14.25H24.1875C24.4688 14.25 24.75 14.0039 24.75 13.6875C24.75 13.4062 24.4688 13.125 24.1875 13.125H11.8125ZM11.8125 16.5H14.0625C14.3438 16.5 14.625 16.2539 14.625 15.9375C14.625 15.6562 14.3438 15.375 14.0625 15.375H11.8125C11.4961 15.375 11.25 15.6562 11.25 15.9375C11.25 16.2539 11.4961 16.5 11.8125 16.5ZM16.3125 16.5H20.8125C21.0938 16.5 21.375 16.2539 21.375 15.9375C21.375 15.6562 21.0938 15.375 20.8125 15.375H16.3125C15.9961 15.375 15.75 15.6562 15.75 15.9375C15.75 16.2539 15.9961 16.5 16.3125 16.5ZM22.2188 6.375C21.7266 6.375 21.375 6.76172 21.375 7.21875V8.90625C21.375 9.39844 21.7266 9.75 22.2188 9.75H25.0312C25.4883 9.75 25.875 9.39844 25.875 8.90625V7.21875C25.875 6.76172 25.4883 6.375 25.0312 6.375H22.2188Z" fill="#536B75"/>
<rect x="0.75" y="0.75" width="34.5" height="22.5" rx="5.25" stroke="#CCD2D8" stroke-width="1.5"/>
</svg>
