<svg width="24" height="16" viewBox="0 0 24 16" fill="none" xmlns="http://www.w3.org/2000/svg">
<path d="M0.5 4C0.5 2.067 2.067 0.5 4 0.5H20C21.933 0.5 23.5 2.067 23.5 4V12C23.5 13.933 21.933 15.5 20 15.5H4C2.067 15.5 0.5 13.933 0.5 12V4Z" fill="white"/>
<path d="M0.5 4C0.5 2.067 2.067 0.5 4 0.5H20C21.933 0.5 23.5 2.067 23.5 4V12C23.5 13.933 21.933 15.5 20 15.5H4C2.067 15.5 0.5 13.933 0.5 12V4Z" stroke="#CCD2D8"/>
<path d="M4.42869 9.51155C4.42869 9.21171 4.27143 9.23143 4.12177 9.22789V9.14194C4.25171 9.148 4.3852 9.148 4.51515 9.148C4.65521 9.148 4.84533 9.14194 5.09258 9.14194C5.9562 9.14194 6.42694 9.71886 6.42694 10.3094C6.42694 10.6396 6.23379 11.4704 5.05263 11.4704C4.88274 11.4704 4.72549 11.4638 4.56874 11.4638C4.412 11.4638 4.27143 11.4673 4.12177 11.4704V11.3834C4.32149 11.3637 4.41857 11.3571 4.42869 11.1301V9.51155ZM4.75532 11.0765C4.75532 11.3338 4.93887 11.3632 5.10269 11.3632C5.82372 11.3632 6.05985 10.8196 6.05985 10.3221C6.05985 9.69864 5.6599 9.24812 5.01572 9.24812C4.8787 9.24812 4.816 9.25773 4.75532 9.26127V11.0765Z" fill="#231F20"/>
<path d="M6.54425 11.3834H6.60745C6.70099 11.3834 6.76723 11.3834 6.76723 11.2727V10.3691C6.76723 10.2225 6.71768 10.2022 6.5938 10.136V10.0824C6.75105 10.0354 6.93763 9.97269 6.95128 9.96207C6.97454 9.94892 6.99426 9.94589 7.01145 9.94589C7.02864 9.94589 7.03471 9.96561 7.03471 9.99241V11.2732C7.03471 11.3839 7.10853 11.3839 7.20157 11.3839H7.2582V11.4709C7.14443 11.4709 7.02813 11.4643 6.90779 11.4643C6.78745 11.4643 6.66762 11.4678 6.54425 11.4709V11.3834ZM6.90173 9.43166C6.81476 9.43166 6.7379 9.35127 6.7379 9.26481C6.7379 9.17834 6.81779 9.10401 6.90173 9.10401C6.98566 9.10401 7.06555 9.1743 7.06555 9.26481C7.06555 9.35531 6.99173 9.43166 6.90173 9.43166Z" fill="#231F20"/>
<path d="M7.57523 10.3888C7.57523 10.266 7.53832 10.2321 7.38208 10.1694V10.1057C7.52517 10.0592 7.66219 10.0152 7.82248 9.94589C7.83259 9.94589 7.8422 9.95246 7.8422 9.97876V10.1962C8.03282 10.0592 8.19614 9.94589 8.42014 9.94589C8.70379 9.94589 8.80391 10.1527 8.80391 10.4131V11.2737C8.80391 11.3844 8.87773 11.3844 8.97077 11.3844H9.03094V11.4714C8.91363 11.4714 8.79734 11.4648 8.6775 11.4648C8.55767 11.4648 8.43733 11.4683 8.31699 11.4714V11.3844H8.37716C8.4707 11.3844 8.53694 11.3844 8.53694 11.2737V10.4101C8.53694 10.2194 8.42064 10.1264 8.23002 10.1264C8.12333 10.1264 7.95344 10.2129 7.84271 10.2867V11.2737C7.84271 11.3844 7.91653 11.3844 8.01007 11.3844H8.07024V11.4714C7.95344 11.4714 7.83613 11.4648 7.71579 11.4648C7.59545 11.4648 7.47562 11.4683 7.35578 11.4714V11.3844H7.41646C7.50949 11.3844 7.57624 11.3844 7.57624 11.2737V10.3898L7.57523 10.3888Z" fill="#231F20"/>
<path d="M9.28375 10.5496C9.27667 10.5794 9.27667 10.6295 9.28375 10.7428C9.30347 11.0598 9.50724 11.3202 9.77371 11.3202C9.95725 11.3202 10.1014 11.2201 10.2242 11.0967L10.2707 11.1432C10.117 11.3465 9.92742 11.5199 9.65387 11.5199C9.12296 11.5199 9.01627 11.0062 9.01627 10.7928C9.01627 10.139 9.45668 9.94538 9.68977 9.94538C9.96029 9.94538 10.251 10.1153 10.2541 10.4687C10.2541 10.4894 10.2541 10.5092 10.251 10.5294L10.2207 10.5496H9.28375ZM9.87433 10.4424C9.95725 10.4424 9.96686 10.3989 9.96686 10.359C9.96686 10.1886 9.86371 10.0516 9.67663 10.0516C9.47336 10.0516 9.33331 10.2017 9.29285 10.4419L9.87433 10.4424Z" fill="#231F20"/>
<path d="M10.3314 11.3834H10.4219C10.5155 11.3834 10.5817 11.3834 10.5817 11.2727V10.3352C10.5817 10.2321 10.4588 10.2119 10.4088 10.1851V10.1355C10.652 10.0318 10.786 9.94538 10.8163 9.94538C10.836 9.94538 10.8462 9.95499 10.8462 9.98887V10.2887H10.8532C10.9362 10.1588 11.0767 9.94538 11.28 9.94538C11.3634 9.94538 11.4701 10.0015 11.4701 10.1218C11.4701 10.2119 11.4074 10.2922 11.3134 10.2922C11.2097 10.2922 11.2097 10.2119 11.0929 10.2119C11.0363 10.2119 10.8492 10.2887 10.8492 10.4889V11.2722C10.8492 11.3829 10.9159 11.3829 11.009 11.3829H11.196V11.4699C11.0125 11.4668 10.8724 11.4633 10.7294 11.4633C10.5863 11.4633 10.4523 11.4668 10.3319 11.4699L10.3314 11.3834Z" fill="#231F20"/>
<path d="M11.6157 11.0062C11.6592 11.2261 11.7927 11.4132 12.0364 11.4132C12.2331 11.4132 12.3059 11.2929 12.3059 11.1761C12.3059 10.7827 11.5793 10.9086 11.5793 10.3721C11.5793 10.1851 11.7295 9.94538 12.0966 9.94538C12.2033 9.94538 12.3464 9.97522 12.4768 10.042L12.5006 10.3822H12.4237C12.3903 10.1724 12.2735 10.0516 12.0597 10.0516C11.9262 10.0516 11.7998 10.1284 11.7998 10.272C11.7998 10.6629 12.5734 10.5425 12.5734 11.0664C12.5734 11.2863 12.3964 11.5199 12 11.5199C11.866 11.5199 11.7093 11.4734 11.5925 11.4067L11.5556 11.0229L11.6157 11.0062Z" fill="#231F20"/>
<path d="M15.5864 9.74515H15.503C15.4398 9.35481 15.1627 9.19806 14.7896 9.19806C14.4164 9.19806 13.8481 9.45492 13.8481 10.2553C13.8481 10.9298 14.3294 11.4137 14.8427 11.4137C15.1728 11.4137 15.4469 11.1867 15.5136 10.8363L15.59 10.856L15.5136 11.3435C15.3736 11.4304 14.9959 11.5204 14.7759 11.5204C13.9952 11.5204 13.5017 11.0168 13.5017 10.266C13.5017 9.58184 14.112 9.09137 14.7663 9.09137C15.0368 9.09137 15.2967 9.17834 15.5536 9.26835L15.5864 9.74515Z" fill="#231F20"/>
<path d="M15.7068 11.3834H15.7705C15.864 11.3834 15.9308 11.3834 15.9308 11.2727V9.41498C15.9308 9.19756 15.8807 9.19098 15.7538 9.15458V9.10098C15.8873 9.0575 16.0274 8.99783 16.0976 8.95738C16.134 8.93766 16.1608 8.92047 16.171 8.92047C16.1912 8.92047 16.1977 8.9407 16.1977 8.96749V11.2727C16.1977 11.3834 16.2716 11.3834 16.3646 11.3834H16.4212V11.4704C16.3085 11.4704 16.1912 11.4638 16.0708 11.4638C15.9505 11.4638 15.8312 11.4673 15.7068 11.4704V11.3834Z" fill="#231F20"/>
<path d="M17.8496 11.2863C17.8496 11.347 17.8861 11.3495 17.9432 11.3495C17.9831 11.3495 18.0332 11.3465 18.0767 11.3465V11.4168C17.9326 11.4299 17.6595 11.5002 17.5953 11.5199L17.5791 11.5098V11.2398C17.3794 11.4031 17.2252 11.5199 16.9881 11.5199C16.808 11.5199 16.6215 11.4036 16.6215 11.1235V10.269C16.6215 10.182 16.6078 10.0986 16.4217 10.0819V10.0187C16.5421 10.0152 16.808 9.99544 16.852 9.99544C16.8889 9.99544 16.8889 10.0187 16.8889 10.092V10.9526C16.8889 11.0527 16.8889 11.3394 17.1792 11.3394C17.2924 11.3394 17.4426 11.2524 17.5827 11.1367V10.2381C17.5827 10.1719 17.4229 10.135 17.3026 10.1016V10.0415C17.6029 10.0212 17.79 9.99494 17.8228 9.99494C17.8496 9.99494 17.8496 10.0182 17.8496 10.0551V11.2863Z" fill="#231F20"/>
<path d="M18.513 10.1856C18.6465 10.0723 18.827 9.94589 19.0106 9.94589C19.3974 9.94589 19.631 10.2831 19.631 10.6462C19.631 11.0831 19.3109 11.5204 18.8331 11.5204C18.5863 11.5204 18.4564 11.4405 18.3694 11.4041L18.2693 11.4805L18.1995 11.4441C18.2289 11.2474 18.2461 11.0532 18.2461 10.85V9.41548C18.2461 9.19806 18.196 9.19149 18.0691 9.15458V9.10098C18.2031 9.0575 18.3426 8.99783 18.4129 8.95738C18.4493 8.93766 18.4761 8.92047 18.4867 8.92047C18.5065 8.92047 18.513 8.9407 18.513 8.96749V10.1856ZM18.513 11.0932C18.513 11.2201 18.6334 11.4335 18.8569 11.4335C19.2143 11.4335 19.364 11.0831 19.364 10.7857C19.364 10.4257 19.0905 10.1254 18.8301 10.1254C18.7062 10.1254 18.603 10.2058 18.5125 10.2826L18.513 11.0932Z" fill="#231F20"/>
<path d="M4.11823 13.41H4.14351C4.20874 13.41 4.27801 13.4014 4.27801 13.3068V12.3557C4.27801 12.2612 4.20874 12.2526 4.14351 12.2526H4.11823V12.1975C4.18902 12.1975 4.29773 12.205 4.38722 12.205C4.47672 12.205 4.58695 12.1975 4.67189 12.1975V12.2526H4.64661C4.58139 12.2526 4.51211 12.2612 4.51211 12.3557V13.3068C4.51211 13.4014 4.58139 13.41 4.64661 13.41H4.67189V13.4651C4.58493 13.4651 4.47571 13.458 4.3852 13.458C4.29469 13.458 4.18952 13.4651 4.11823 13.4651V13.41Z" fill="#231F20"/>
<path d="M4.67189 13.4727C4.58442 13.4727 4.4752 13.4656 4.3852 13.4656C4.2952 13.4656 4.18952 13.4727 4.11823 13.4727H4.11014V13.4029H4.14351C4.20924 13.4014 4.26941 13.3958 4.26992 13.3068V12.3557C4.26992 12.2667 4.20924 12.2612 4.14351 12.2597H4.11014V12.1899H4.11823C4.18952 12.1899 4.29823 12.197 4.38722 12.197C4.47621 12.197 4.58594 12.1899 4.67189 12.1899H4.67998V12.2597H4.64712C4.58088 12.2607 4.52071 12.2667 4.5202 12.3557V13.3068C4.5202 13.3958 4.58088 13.4014 4.64712 13.4029H4.67998V13.4727H4.67189ZM4.66431 13.457V13.4181H4.64712C4.5824 13.4181 4.50504 13.4069 4.50453 13.3063V12.3552C4.50453 12.2551 4.5824 12.2435 4.64712 12.2435H4.66431V12.205C4.58037 12.205 4.4752 12.2121 4.38722 12.2121C4.29924 12.2121 4.1966 12.2056 4.12632 12.205V12.2435H4.14351C4.20823 12.2435 4.28559 12.2546 4.28559 12.3552V13.3063C4.28559 13.4064 4.20823 13.4181 4.14351 13.4181H4.12632V13.457C4.1966 13.456 4.29924 13.4494 4.3852 13.4494C4.47116 13.4494 4.57886 13.456 4.66431 13.457Z" fill="#231F20"/>
<path d="M5.91929 13.1071L5.92282 13.1036V12.4225C5.92282 12.2738 5.81917 12.2521 5.76456 12.2521H5.72462V12.197C5.80956 12.197 5.8935 12.2045 5.97895 12.2045C6.05328 12.2045 6.12811 12.197 6.20193 12.197V12.2521H6.17513C6.09828 12.2521 6.01283 12.2662 6.01283 12.4821V13.3083C6.01283 13.3715 6.01485 13.4352 6.02395 13.4914H5.95468L5.01977 12.4493V13.1971C5.01977 13.3554 5.05061 13.4095 5.19017 13.4095H5.22101V13.4646C5.14314 13.4646 5.06477 13.4575 4.9869 13.4575C4.90904 13.4575 4.82207 13.4646 4.74015 13.4646V13.4095H4.76544C4.89083 13.4095 4.92926 13.3245 4.92926 13.1794V12.4149C4.92926 12.3133 4.84533 12.2521 4.76392 12.2521H4.74015V12.197C4.80892 12.197 4.87971 12.2045 4.94847 12.2045C5.00308 12.2045 5.05617 12.197 5.11028 12.197L5.91827 13.1071H5.91929Z" fill="#231F20"/>
<path d="M6.02395 13.5L5.94912 13.4969L5.02786 12.47V13.1976C5.03039 13.3559 5.05415 13.4004 5.19067 13.4024H5.2296V13.4722H5.22151C5.14314 13.4722 5.06477 13.4651 4.98741 13.4651C4.91005 13.4651 4.82308 13.4722 4.74066 13.4722H4.73257V13.4024H4.76645C4.88679 13.4014 4.92066 13.3245 4.92218 13.1794V12.4149C4.92218 12.3183 4.84229 12.2597 4.76442 12.2592H4.73257V12.1894H4.74066C4.81044 12.1894 4.88122 12.1965 4.94949 12.1965C5.00359 12.1965 5.05617 12.1894 5.11735 12.1919L5.91524 13.0899V12.422C5.91423 12.2774 5.81816 12.2602 5.76507 12.2592H5.71703V12.1894H5.72512C5.81057 12.1894 5.89451 12.1965 5.97946 12.1965C6.05328 12.1965 6.1276 12.1894 6.20244 12.1894H6.21053V12.2592H6.17564C6.1003 12.2612 6.02395 12.2683 6.02142 12.4816V13.3083C6.02142 13.3715 6.02345 13.4347 6.03204 13.4904L6.03356 13.4995L6.02395 13.5ZM5.95468 13.4838H6.01485C6.00676 13.4292 6.00524 13.3685 6.00524 13.3088V12.4821C6.00524 12.2642 6.09626 12.244 6.17463 12.244H6.19384V12.205C6.12204 12.205 6.05075 12.2121 5.97844 12.2121C5.89501 12.2121 5.81411 12.2056 5.7322 12.205V12.244H5.76406C5.82018 12.244 5.9299 12.2688 5.9299 12.4225L5.92788 13.1086L5.92434 13.1122L5.91827 13.1177L5.11129 12.205C5.05718 12.205 5.0046 12.2121 4.94949 12.2121C4.88325 12.2121 4.81448 12.2056 4.74875 12.205V12.244H4.76442C4.84937 12.244 4.93735 12.3092 4.93735 12.4154V13.1799C4.93735 13.3255 4.8969 13.4181 4.76594 13.4186H4.74824V13.4575C4.82662 13.4565 4.90752 13.4499 4.9869 13.4499C5.06629 13.4499 5.13809 13.4565 5.21292 13.4575V13.4186H5.19017C5.04758 13.4181 5.01168 13.3564 5.01168 13.1981V12.4301L5.95468 13.4848V13.4838Z" fill="#231F20"/>
<path d="M6.47396 12.288C6.33795 12.288 6.33289 12.3208 6.30508 12.4533H6.25098C6.25856 12.4028 6.26716 12.3517 6.27272 12.2991C6.2798 12.2485 6.28334 12.1975 6.28334 12.1449H6.32682C6.34149 12.1995 6.38649 12.197 6.43553 12.197H7.37247C7.42151 12.197 7.46702 12.1954 7.47056 12.1408L7.51354 12.1484C7.50697 12.197 7.49938 12.246 7.49382 12.2951C7.49028 12.3441 7.49028 12.3931 7.49028 12.4422L7.43618 12.4624C7.43264 12.3952 7.42303 12.2875 7.30168 12.2875H7.00386V13.2532C7.00386 13.3933 7.06757 13.4095 7.15454 13.4095H7.18892V13.4641C7.11814 13.4641 6.99122 13.457 6.89313 13.457C6.78442 13.457 6.657 13.4641 6.58621 13.4641V13.4095H6.6206C6.72071 13.4095 6.77127 13.4009 6.77127 13.2573V12.2875L6.47396 12.288Z" fill="#231F20"/>
<path d="M7.18994 13.4727C7.11814 13.4727 6.99122 13.4656 6.89364 13.4656C6.78493 13.4656 6.65801 13.4727 6.58672 13.4727H6.57913V13.4029H6.62161C6.72172 13.4004 6.76217 13.3993 6.76419 13.2583V12.2961H6.47447V12.2809H6.78038V13.2583C6.78038 13.4039 6.72172 13.4186 6.62211 13.4186H6.59531V13.457C6.66711 13.4565 6.78897 13.4499 6.89414 13.4499C6.98869 13.4499 7.11005 13.4565 7.18185 13.457V13.4186H7.15555C7.06757 13.4186 6.99678 13.3973 6.99678 13.2542V12.2809H7.30269C7.42455 12.2809 7.44073 12.3845 7.44427 12.4518L7.48421 12.4371C7.48421 12.3901 7.48421 12.3426 7.48725 12.2945C7.4923 12.248 7.49938 12.202 7.50596 12.1555L7.47865 12.1509C7.46955 12.2035 7.41899 12.2066 7.37348 12.2061H6.42744C6.38447 12.2061 6.33845 12.204 6.32227 12.1535H6.29194C6.29194 12.2035 6.2884 12.2521 6.28132 12.3011C6.27626 12.3507 6.26817 12.3987 6.2616 12.4462H6.30053C6.3248 12.3203 6.33997 12.2789 6.47548 12.2814V12.2966C6.34149 12.2996 6.34452 12.3218 6.31469 12.4558L6.31368 12.4619H6.24339L6.24441 12.4523C6.25149 12.4017 6.26109 12.3507 6.26665 12.2981C6.27373 12.248 6.27727 12.1975 6.27727 12.1454V12.1373H6.33491L6.33593 12.1429C6.34857 12.1889 6.38194 12.1889 6.42795 12.1899H7.37399C7.42404 12.1889 7.46146 12.1879 7.46449 12.1408V12.1322L7.47309 12.1338L7.52416 12.1418L7.52315 12.1494C7.51607 12.1985 7.50899 12.2475 7.50343 12.2961C7.49989 12.3446 7.49989 12.3936 7.49989 12.4427V12.4483L7.49483 12.4503L7.43062 12.474V12.4629C7.42556 12.3947 7.41848 12.2961 7.3037 12.2961H7.01398V13.2542C7.016 13.3913 7.0701 13.4009 7.15707 13.4029H7.19904V13.4727H7.18994Z" fill="#231F20"/>
<path d="M7.5727 13.41H7.59798C7.66321 13.41 7.73248 13.4014 7.73248 13.3068V12.3557C7.73248 12.2612 7.66321 12.2526 7.59798 12.2526H7.5727V12.1975C7.68293 12.1975 7.87254 12.205 8.02473 12.205C8.17693 12.205 8.36603 12.1975 8.48941 12.1975C8.48637 12.2758 8.4884 12.3962 8.49345 12.4756L8.43834 12.4902C8.42974 12.3724 8.408 12.2779 8.21687 12.2779H7.96507V12.7532H8.18047C8.28968 12.7532 8.31345 12.692 8.32407 12.5939H8.37817C8.37463 12.6647 8.37261 12.7355 8.37261 12.8062C8.37261 12.877 8.37463 12.9443 8.37817 13.013L8.32407 13.0242C8.31345 12.9155 8.30789 12.8447 8.18249 12.8447H7.96507V13.2674C7.96507 13.3857 8.07024 13.3857 8.18603 13.3857C8.40446 13.3857 8.50003 13.371 8.55463 13.1642L8.6052 13.1769C8.58143 13.2734 8.55969 13.369 8.54351 13.4656C8.42772 13.4656 8.21839 13.4585 8.05507 13.4585C7.89175 13.4585 7.67585 13.4656 7.57219 13.4656L7.5727 13.41Z" fill="#231F20"/>
<path d="M8.54402 13.4727C8.42772 13.4727 8.21889 13.4651 8.05558 13.4651C7.89226 13.4651 7.67635 13.4727 7.5727 13.4727H7.56461V13.4029H7.59798C7.66371 13.4019 7.72388 13.3958 7.72439 13.3068V12.3557C7.72388 12.2672 7.66371 12.2612 7.59798 12.2597H7.56461V12.1899H7.5727C7.68343 12.1899 7.87254 12.197 8.02473 12.197C8.17693 12.197 8.36553 12.1899 8.48941 12.1899H8.4975V12.198C8.49598 12.2253 8.49547 12.2576 8.49547 12.292C8.49547 12.3542 8.4975 12.423 8.50104 12.4746V12.4811L8.49547 12.4831L8.43177 12.4998V12.4902C8.42064 12.3729 8.40547 12.287 8.21788 12.2854H7.97316V12.7451H8.18148C8.28665 12.7441 8.30485 12.6905 8.31699 12.5929L8.318 12.5858H8.38777V12.5939C8.38424 12.6647 8.38171 12.7355 8.38171 12.8062C8.38171 12.877 8.38373 12.9438 8.38777 13.013V13.0191L8.3812 13.0206L8.318 13.0328L8.31699 13.0242C8.30485 12.9134 8.30384 12.8528 8.1835 12.8512H7.97366V13.2664C7.97366 13.3766 8.06872 13.3761 8.18755 13.3766C8.40648 13.3756 8.49396 13.3645 8.54857 13.1607L8.55059 13.1531L8.55817 13.1546L8.61632 13.1698L8.6148 13.1774C8.59104 13.2729 8.5698 13.3695 8.55312 13.4651L8.5521 13.4717H8.54553L8.54402 13.4727ZM8.53744 13.457C8.55312 13.3655 8.57385 13.2734 8.5961 13.1824L8.5602 13.1733C8.50559 13.3766 8.40042 13.3948 8.18603 13.3928C8.07176 13.3928 7.95698 13.3928 7.95647 13.2669V12.8361H8.18249C8.3094 12.8346 8.32204 12.9114 8.33114 13.0146L8.37058 13.0065C8.36755 12.9397 8.36553 12.872 8.36553 12.8057C8.36553 12.7395 8.36755 12.6697 8.37058 12.601H8.33114C8.32103 12.696 8.29171 12.7623 8.18097 12.7607H7.95698V12.2693H8.21738C8.40648 12.2683 8.43783 12.3658 8.44542 12.4796L8.48435 12.469C8.48132 12.4179 8.4798 12.3527 8.4798 12.292C8.4798 12.2602 8.48031 12.2313 8.48132 12.2056C8.35794 12.2056 8.17389 12.2126 8.02473 12.2126C7.87557 12.2126 7.69152 12.2061 7.58079 12.2056V12.2445H7.59849C7.66321 12.2445 7.74057 12.2556 7.74107 12.3557V13.3068C7.74107 13.4069 7.66371 13.4176 7.59849 13.4186H7.58079V13.457C7.68647 13.457 7.8963 13.4499 8.05558 13.4499C8.21485 13.4499 8.42014 13.4565 8.53744 13.457Z" fill="#231F20"/>
<path d="M8.85093 12.3901C8.85093 12.2576 8.77812 12.2526 8.722 12.2526H8.68913V12.1975C8.74728 12.1975 8.86003 12.205 8.97077 12.205C9.0815 12.205 9.16645 12.1975 9.26302 12.1975C9.49106 12.1975 9.69433 12.2592 9.69433 12.5175C9.69433 12.6808 9.58561 12.7805 9.44252 12.8371L9.75298 13.3013C9.80354 13.3781 9.83944 13.3999 9.92894 13.41V13.4646C9.86927 13.4646 9.81113 13.4575 9.75096 13.4575C9.69433 13.4575 9.63668 13.4646 9.58005 13.4646C9.4405 13.2815 9.32016 13.0854 9.20235 12.876H9.08302V13.2649C9.08302 13.4049 9.14824 13.41 9.23167 13.41H9.26454V13.4646C9.16038 13.4646 9.05571 13.4575 8.95206 13.4575C8.86509 13.4575 8.77964 13.4646 8.68863 13.4646V13.41H8.72149C8.78823 13.41 8.85043 13.3796 8.85043 13.3119L8.85093 12.3901ZM9.08352 12.8113H9.17201C9.35353 12.8113 9.45162 12.7425 9.45162 12.5281C9.45162 12.3669 9.34797 12.2632 9.18667 12.2632C9.13156 12.2632 9.1088 12.2688 9.08352 12.2708V12.8113Z" fill="#231F20"/>
<path d="M9.92894 13.4727C9.86826 13.4727 9.81062 13.4656 9.75045 13.4656C9.69534 13.4656 9.63719 13.4727 9.57348 13.4701C9.43443 13.2871 9.3151 13.0924 9.1978 12.8846H9.0906V13.2654C9.09262 13.4019 9.14723 13.4009 9.23117 13.4029H9.27162V13.4727H9.26353C9.15937 13.4727 9.0542 13.4656 8.95105 13.4656C8.86408 13.4656 8.77913 13.4727 8.68812 13.4727H8.68054V13.4029H8.72099C8.78621 13.4024 8.84133 13.3736 8.84183 13.3124V12.3901C8.84082 12.2617 8.77762 12.2617 8.72099 12.2597H8.68054V12.1899H8.68812C8.74728 12.1899 8.85953 12.197 8.97026 12.197C9.081 12.197 9.16594 12.1899 9.26252 12.1899C9.49106 12.1899 9.70191 12.2536 9.70242 12.517C9.70242 12.6808 9.5937 12.7835 9.45415 12.8406L9.75905 13.2972C9.80961 13.3726 9.84146 13.3918 9.92944 13.4029H9.93602V13.4727H9.92894ZM9.08302 12.8689H9.2069L9.20892 12.873C9.32724 13.0818 9.44657 13.278 9.58005 13.4575C9.63567 13.4575 9.69382 13.4499 9.75045 13.4499C9.80708 13.4499 9.86472 13.456 9.92085 13.457V13.417C9.8354 13.4069 9.79596 13.3811 9.74641 13.3063L9.43039 12.8335L9.43949 12.83C9.58157 12.7744 9.68674 12.6773 9.68674 12.5175C9.68674 12.2657 9.49056 12.2071 9.26302 12.2061C9.16695 12.2061 9.07948 12.2131 8.97077 12.2131C8.86206 12.2131 8.75638 12.2066 8.69672 12.2061V12.245H8.722C8.77812 12.245 8.85801 12.2541 8.85801 12.3906V13.3129C8.85801 13.3857 8.79026 13.4191 8.722 13.4191H8.69672V13.4575C8.78419 13.4575 8.86661 13.4504 8.95206 13.4504C9.05369 13.4504 9.15633 13.457 9.25645 13.4575V13.4191H9.23167C9.14875 13.4191 9.07493 13.409 9.07493 13.2659V12.8694L9.08302 12.8689ZM9.08302 12.8189H9.07543V12.2627H9.08201C9.10678 12.2602 9.13105 12.2551 9.18617 12.2551C9.35151 12.2551 9.45921 12.3628 9.45971 12.5281C9.45921 12.7446 9.35505 12.8184 9.17201 12.8184L9.08302 12.8189ZM9.17201 12.8037C9.35151 12.8017 9.44252 12.7395 9.44404 12.5287C9.44303 12.3704 9.34443 12.2718 9.18667 12.2708C9.13763 12.2708 9.11487 12.2753 9.09161 12.2779V12.8037H9.17201Z" fill="#231F20"/>
<path d="M11.1617 13.1071L11.1652 13.1036V12.4225C11.1652 12.2738 11.0621 12.2521 11.0074 12.2521H10.9675V12.197C11.053 12.197 11.1359 12.2045 11.2218 12.2045C11.2967 12.2045 11.3705 12.197 11.4453 12.197V12.2521H11.4185C11.3422 12.2521 11.2567 12.2662 11.2567 12.4821V13.3083C11.2567 13.3715 11.2582 13.4352 11.2673 13.4914H11.1986L10.2637 12.4493V13.1971C10.2637 13.3554 10.2945 13.4095 10.4346 13.4095H10.4659V13.4646C10.3875 13.4646 10.3092 13.4575 10.2313 13.4575C10.1534 13.4575 10.066 13.4646 9.98456 13.4646V13.4095H10.0093C10.1352 13.4095 10.1732 13.3245 10.1732 13.1794V12.4149C10.1732 12.3133 10.0897 12.2521 10.0083 12.2521H9.98456V12.197C10.0533 12.197 10.1246 12.2045 10.1934 12.2045C10.2475 12.2045 10.3001 12.197 10.3547 12.197L11.1627 13.1071H11.1617Z" fill="#231F20"/>
<path d="M11.2668 13.5L11.192 13.4969L10.2707 12.47V13.1976C10.2728 13.3559 10.297 13.4004 10.4336 13.4024H10.472V13.4722H10.4644C10.386 13.4722 10.3077 13.4646 10.2303 13.4646C10.1529 13.4646 10.065 13.4722 9.98355 13.4722H9.97495V13.4024H10.0083C10.1282 13.4019 10.163 13.3245 10.1641 13.1794V12.4149C10.1641 12.3178 10.0847 12.2597 10.0068 12.2592H9.97495V12.1894H9.98355C10.0528 12.1894 10.1236 12.1965 10.1924 12.1965C10.246 12.1965 10.2986 12.1894 10.3592 12.1914L11.1576 13.0899V12.422C11.1576 12.2774 11.0605 12.2597 11.008 12.2592H10.9599V12.1894H10.968C11.054 12.1894 11.1374 12.1965 11.2223 12.1965C11.2962 12.1965 11.371 12.1894 11.4458 12.1894H11.4534V12.2592H11.4185C11.3437 12.2612 11.2663 12.2683 11.2643 12.4816V13.3083C11.2643 13.3715 11.2658 13.4342 11.2749 13.4904L11.2759 13.4995L11.2668 13.5ZM11.1981 13.4838H11.2572C11.2496 13.4297 11.2481 13.3685 11.2481 13.3088V12.4821C11.2481 12.2642 11.3402 12.2445 11.418 12.244H11.4367V12.205C11.3654 12.205 11.2936 12.2121 11.2213 12.2121C11.1379 12.2121 11.0565 12.2056 10.9751 12.205V12.244H11.0074C11.0631 12.244 11.1733 12.2688 11.1733 12.4225L11.1708 13.1086L11.1672 13.1122L11.1617 13.1182L10.3537 12.205C10.2996 12.205 10.247 12.2121 10.1924 12.2121C10.1251 12.2121 10.0569 12.2056 9.99113 12.205V12.244H10.0068C10.0923 12.244 10.1797 12.3087 10.1797 12.4154V13.1799C10.1797 13.3255 10.1383 13.4181 10.0083 13.4186H9.99113V13.457C10.0695 13.4565 10.1504 13.4499 10.2303 13.4499C10.3102 13.4499 10.3815 13.4565 10.4568 13.457V13.4186H10.4341C10.291 13.4186 10.2551 13.3564 10.2551 13.1981V12.4301L11.1986 13.4848L11.1981 13.4838Z" fill="#231F20"/>
<path d="M11.7376 13.2052C11.7189 13.2669 11.6971 13.3144 11.6971 13.3468C11.6971 13.4014 11.774 13.41 11.8336 13.41H11.8539V13.4646C11.7811 13.461 11.7067 13.4575 11.6339 13.4575C11.5687 13.4575 11.5035 13.461 11.4382 13.4646V13.41H11.4489C11.5197 13.41 11.5798 13.3685 11.6066 13.2922L11.8974 12.4594C11.9211 12.3921 11.954 12.3016 11.9646 12.2339C12.0228 12.2142 12.0956 12.1783 12.1299 12.156C12.1355 12.154 12.1385 12.1525 12.1441 12.1525C12.1492 12.1525 12.1532 12.1525 12.1567 12.1575C12.1623 12.1722 12.1674 12.1884 12.1734 12.203L12.5072 13.1526C12.5289 13.2158 12.5506 13.2836 12.5744 13.3382C12.5961 13.3887 12.6346 13.41 12.6947 13.41H12.7054V13.4646C12.624 13.461 12.542 13.4575 12.4551 13.4575C12.3681 13.4575 12.2756 13.461 12.183 13.4646V13.41H12.2028C12.2442 13.41 12.315 13.4034 12.315 13.3579C12.315 13.3341 12.2988 13.2851 12.2781 13.2269L12.2073 13.0161H11.7952L11.7376 13.2052ZM12.0025 12.4007H11.999L11.8301 12.9144H12.1694L12.0025 12.4007Z" fill="#231F20"/>
<path d="M12.7038 13.4727C12.6224 13.4691 12.541 13.4651 12.4541 13.4651C12.3671 13.4651 12.2751 13.4691 12.182 13.4727H12.1739V13.4024H12.2023C12.2437 13.4024 12.3064 13.3933 12.3064 13.3584C12.3064 13.3377 12.2912 13.2876 12.271 13.23L12.2017 13.0247H11.8013L11.7447 13.2077C11.726 13.2699 11.7047 13.3179 11.7047 13.3473C11.7052 13.3918 11.7735 13.4024 11.8336 13.4024H11.8615V13.4737H11.8534C11.7806 13.4696 11.7062 13.4656 11.6339 13.4656C11.5687 13.4656 11.5035 13.4696 11.4382 13.4732H11.4302V13.4029H11.4484C11.5161 13.4029 11.5722 13.364 11.5985 13.2906L11.8893 12.4574C11.913 12.3901 11.9459 12.2996 11.9616 12.2273C12.0182 12.2076 12.091 12.1712 12.1264 12.1489C12.1315 12.1469 12.1365 12.1444 12.1436 12.1444C12.1482 12.1444 12.1578 12.1454 12.1633 12.1555C12.1689 12.1702 12.1744 12.1863 12.18 12.201L12.5147 13.1506C12.536 13.2138 12.5577 13.281 12.5815 13.3346C12.6022 13.3832 12.6361 13.4024 12.6942 13.4024H12.7129V13.4737H12.7043L12.7038 13.4727ZM12.1896 13.4565C12.2791 13.4535 12.3676 13.4499 12.4541 13.4499C12.5405 13.4499 12.6174 13.4535 12.6963 13.4565V13.4186H12.6932C12.6315 13.4191 12.5886 13.3943 12.5658 13.3412C12.542 13.2861 12.5203 13.2188 12.4986 13.1551L12.1643 12.2056C12.1588 12.1909 12.1532 12.1747 12.1487 12.1616C12.1466 12.1595 12.1476 12.1595 12.1456 12.1595H12.1421C12.1385 12.1595 12.1365 12.1606 12.1315 12.1621C12.0966 12.1848 12.0233 12.2207 11.9697 12.2349C11.9585 12.3042 11.9262 12.3942 11.9024 12.4614L11.6122 13.2947C11.5844 13.3736 11.5207 13.4181 11.4468 13.4181H11.4438V13.456C11.506 13.4529 11.5687 13.4494 11.6319 13.4494C11.7022 13.4494 11.774 13.4529 11.8433 13.456V13.4181H11.8316C11.7725 13.417 11.6895 13.411 11.688 13.3463C11.688 13.3104 11.7098 13.2633 11.728 13.2027L11.7876 13.008H12.2103L12.2832 13.2239C12.3039 13.2825 12.3201 13.3306 12.3201 13.3574C12.317 13.413 12.2407 13.417 12.1997 13.4181H12.1876V13.456L12.1896 13.4565ZM11.8185 12.923L11.9924 12.3931H12.002H12.0076L12.18 12.923H11.8185ZM11.8402 12.9074H12.1583L12.0005 12.4204L11.8402 12.9074Z" fill="#231F20"/>
<path d="M12.7847 12.288C12.6482 12.288 12.6432 12.3208 12.6159 12.4533H12.5613C12.5688 12.4028 12.5779 12.3517 12.583 12.2991C12.5906 12.2485 12.5941 12.1975 12.5941 12.1449H12.6376C12.6523 12.1995 12.6978 12.197 12.7463 12.197H13.6832C13.7323 12.197 13.7773 12.1954 13.7808 12.1408L13.8243 12.1484C13.8172 12.197 13.8102 12.246 13.8046 12.2951C13.8 12.3441 13.8 12.3931 13.8 12.4422L13.7459 12.4624C13.7429 12.3952 13.7333 12.2875 13.612 12.2875H13.3141V13.2532C13.3141 13.3933 13.3778 13.4095 13.4648 13.4095H13.4992V13.4641C13.4284 13.4641 13.3015 13.457 13.2034 13.457C13.0947 13.457 12.9673 13.4641 12.896 13.4641V13.4095H12.9309C13.031 13.4095 13.0821 13.4009 13.0821 13.2573V12.2875L12.7847 12.288Z" fill="#231F20"/>
<path d="M13.4997 13.4727C13.4289 13.4727 13.302 13.4656 13.2039 13.4656C13.0952 13.4656 12.9683 13.4727 12.8965 13.4727H12.8889V13.4029H12.9314C13.0315 13.4004 13.0714 13.3993 13.074 13.2583V12.2961H12.7842V12.2809H13.0896V13.2583C13.0896 13.4039 13.031 13.4181 12.9314 13.4186H12.9046V13.457C12.9764 13.456 13.0982 13.4494 13.2039 13.4494C13.2985 13.4494 13.4203 13.456 13.4921 13.457V13.4186H13.4653C13.3778 13.4176 13.3076 13.3973 13.3071 13.2542V12.2809H13.6125C13.7348 12.2809 13.7505 12.3845 13.754 12.4518L13.7935 12.4371C13.7935 12.3901 13.7935 12.3426 13.7975 12.2951C13.8026 12.2485 13.8097 12.202 13.8162 12.156L13.7889 12.1509C13.7803 12.2035 13.7293 12.2066 13.6838 12.2061H12.7377C12.6947 12.2061 12.6487 12.204 12.632 12.153H12.6022C12.6017 12.204 12.5982 12.2521 12.5911 12.3011C12.586 12.3512 12.5774 12.3987 12.5704 12.4462H12.6093C12.6331 12.3203 12.6482 12.2784 12.7842 12.2809V12.2961C12.6492 12.2986 12.6533 12.3218 12.6234 12.4558L12.6219 12.4619H12.5516L12.5527 12.4523C12.5602 12.4017 12.5693 12.3507 12.5744 12.2986C12.582 12.2475 12.585 12.1975 12.585 12.1454V12.1373H12.6427L12.6442 12.1429C12.6568 12.1889 12.6907 12.1889 12.7367 12.1899H13.6827C13.7328 12.1889 13.7697 12.1879 13.7727 12.1408V12.1322L13.7818 12.1338L13.8334 12.1418L13.8319 12.1494C13.8243 12.1985 13.8177 12.2475 13.8122 12.2961C13.8086 12.3446 13.8086 12.3936 13.8086 12.4427V12.4483L13.8031 12.4503L13.7389 12.474V12.4629C13.7343 12.3947 13.7267 12.2961 13.612 12.2961H13.3222V13.2542C13.3243 13.3913 13.3784 13.4009 13.4648 13.4029H13.5073V13.4727H13.4997Z" fill="#231F20"/>
<path d="M13.8916 13.41H13.9168C13.9826 13.41 14.0513 13.4014 14.0513 13.3068V12.3557C14.0513 12.2612 13.9826 12.2526 13.9168 12.2526H13.8916V12.1975C13.9624 12.1975 14.0711 12.205 14.1601 12.205C14.249 12.205 14.3598 12.1975 14.4457 12.1975V12.2526H14.4205C14.3547 12.2526 14.2855 12.2612 14.2855 12.3557V13.3068C14.2855 13.4014 14.3547 13.41 14.4205 13.41H14.4457V13.4651C14.3583 13.4651 14.2496 13.458 14.1585 13.458C14.0675 13.458 13.9624 13.4651 13.8916 13.4651V13.41Z" fill="#231F20"/>
<path d="M14.4457 13.4727C14.3578 13.4727 14.249 13.4651 14.1585 13.4651C14.068 13.4651 13.9624 13.4727 13.8916 13.4727H13.884V13.4029H13.9168C13.9826 13.4019 14.0428 13.3958 14.0428 13.3068V12.3557C14.0428 12.2672 13.9826 12.2612 13.9168 12.2597H13.884V12.1899H13.8916C13.9624 12.1899 14.0716 12.197 14.1601 12.197C14.2485 12.197 14.3598 12.1899 14.4457 12.1899H14.4533V12.2597H14.4205C14.3542 12.2612 14.294 12.2672 14.2935 12.3557V13.3068C14.294 13.3958 14.3542 13.4014 14.4205 13.4029H14.4533V13.4727H14.4457ZM14.4371 13.457V13.4186H14.42C14.3547 13.4186 14.2774 13.4069 14.2774 13.3068V12.3557C14.2774 12.2556 14.3547 12.2445 14.42 12.2445H14.4371V12.2056C14.3532 12.2056 14.2485 12.2126 14.1601 12.2126C14.0716 12.2126 13.9699 12.2061 13.8997 12.2056V12.2445H13.9168C13.9811 12.2445 14.0589 12.2556 14.0589 12.3557V13.3068C14.0589 13.4069 13.9811 13.4186 13.9168 13.4186H13.8997V13.457C13.9699 13.456 14.0721 13.4499 14.1585 13.4499C14.245 13.4499 14.3517 13.4565 14.4371 13.457Z" fill="#231F20"/>
<path d="M15.1698 12.1702C15.5566 12.1702 15.865 12.4098 15.865 12.7966C15.865 13.2143 15.5657 13.4919 15.1789 13.4919C14.7921 13.4919 14.5003 13.231 14.5003 12.8401C14.5003 12.4493 14.7926 12.1702 15.1698 12.1702ZM15.1971 13.412C15.55 13.412 15.6107 13.1015 15.6107 12.8366C15.6107 12.5716 15.4676 12.2501 15.1663 12.2501C14.8487 12.2501 14.7542 12.5332 14.7542 12.7759C14.7542 13.101 14.9028 13.412 15.1971 13.412Z" fill="#231F20"/>
<path d="M14.4918 12.8401C14.4928 12.4584 14.7881 12.1626 15.1698 12.1621V12.1783C14.7961 12.1783 14.5074 12.467 14.5074 12.8401C14.5079 13.2259 14.7977 13.4838 15.1789 13.4838C15.5617 13.4838 15.857 13.2097 15.858 12.7961C15.858 12.4144 15.5536 12.1788 15.1698 12.1783V12.1621C15.5596 12.1631 15.8721 12.4048 15.8726 12.7961C15.8726 13.2178 15.5693 13.499 15.1789 13.4995C14.7906 13.4985 14.4928 13.2345 14.4918 12.8401ZM14.7461 12.7759C14.7466 12.5317 14.8427 12.2415 15.1663 12.2415C15.4747 12.242 15.6183 12.5696 15.6188 12.8366C15.6188 13.101 15.5561 13.4191 15.1971 13.4191V13.4039C15.543 13.4039 15.6026 13.101 15.6031 12.8366C15.6031 12.5731 15.461 12.2581 15.1663 12.2576C14.8548 12.2576 14.7628 12.5342 14.7623 12.7759C14.7623 13.0995 14.9099 13.4029 15.1971 13.4039V13.4191C14.8963 13.4191 14.7466 13.1025 14.7461 12.7759Z" fill="#231F20"/>
<path d="M17.0887 13.1071L17.0922 13.1036V12.4225C17.0922 12.2738 16.9886 12.2521 16.9334 12.2521H16.8945V12.197C16.9795 12.197 17.0634 12.2045 17.1483 12.2045C17.2232 12.2045 17.2975 12.197 17.3718 12.197V12.2521H17.3445C17.2677 12.2521 17.1827 12.2662 17.1827 12.4821V13.3083C17.1827 13.3715 17.1847 13.4352 17.1938 13.4914H17.1246L16.1897 12.4493V13.1971C16.1897 13.3554 16.2205 13.4095 16.3606 13.4095H16.3914V13.4646C16.3135 13.4646 16.2357 13.4575 16.1573 13.4575C16.0789 13.4575 15.992 13.4646 15.91 13.4646V13.4095H15.9358C16.0617 13.4095 16.0986 13.3245 16.0986 13.1794V12.4149C16.0986 12.3133 16.0157 12.2521 15.9333 12.2521H15.9095V12.197C15.9788 12.197 16.0496 12.2045 16.1184 12.2045C16.1725 12.2045 16.2251 12.197 16.2797 12.197L17.0887 13.1071Z" fill="#231F20"/>
<path d="M17.1938 13.5L17.1185 13.4969L16.1972 12.47V13.1976C16.1993 13.3559 16.2235 13.4004 16.3601 13.4019H16.3995V13.4722H16.3914C16.313 13.4722 16.2347 13.4651 16.1573 13.4651C16.0799 13.4651 15.9925 13.4722 15.91 13.4722H15.9025V13.4019H15.9353C16.0552 13.4019 16.0895 13.3245 16.0906 13.1794V12.4149C16.0906 12.3178 16.0117 12.2597 15.9333 12.2592H15.9025V12.1894H15.91C15.9798 12.1894 16.0506 12.1965 16.1189 12.1965C16.1725 12.1965 16.2251 12.1894 16.2867 12.1919L17.0841 13.0899V12.422C17.0841 12.2774 16.9875 12.2602 16.9339 12.2592H16.8864V12.1894H16.8945C16.98 12.1894 17.0639 12.1965 17.1478 12.1965C17.2227 12.1965 17.2965 12.1894 17.3718 12.1894H17.3794V12.2592H17.3445C17.2697 12.2612 17.1923 12.2683 17.1908 12.4816V13.3083C17.1908 13.3715 17.1923 13.4347 17.2009 13.4904L17.2024 13.4995L17.1938 13.5ZM17.1246 13.4838H17.1847C17.1767 13.4292 17.1751 13.3685 17.1751 13.3088V12.4821C17.1751 12.2642 17.2667 12.2445 17.3445 12.244H17.3642V12.205C17.2924 12.205 17.2206 12.2121 17.1478 12.2121C17.0654 12.2121 16.9845 12.2056 16.9021 12.205V12.244H16.9334C16.9901 12.244 17.0998 12.2693 17.0998 12.4225L17.0978 13.1086L17.0947 13.1122L17.0892 13.1182L16.2807 12.205C16.2271 12.205 16.174 12.2121 16.1194 12.2121C16.0521 12.2121 15.9839 12.2056 15.9181 12.205V12.244H15.9338C16.0193 12.244 16.1072 12.3087 16.1072 12.4154V13.1799C16.1072 13.3255 16.0668 13.4181 15.9358 13.4186H15.9181V13.457C15.997 13.4565 16.0774 13.4499 16.1573 13.4499C16.2331 13.4499 16.3085 13.4565 16.3833 13.457V13.4186H16.3596C16.217 13.4186 16.1816 13.3564 16.1816 13.1981V12.4301L17.1241 13.4848L17.1246 13.4838Z" fill="#231F20"/>
<path d="M17.6636 13.2052C17.6459 13.2669 17.6236 13.3144 17.6236 13.3468C17.6236 13.4014 17.7005 13.41 17.7596 13.41H17.7799V13.4646C17.7071 13.461 17.6327 13.4575 17.5599 13.4575C17.4937 13.4575 17.429 13.461 17.3642 13.4646V13.41H17.3744C17.4456 13.41 17.5058 13.3685 17.5326 13.2922L17.8234 12.4594C17.8471 12.3921 17.8795 12.3016 17.8901 12.2339C17.9482 12.2142 18.0205 12.1783 18.0554 12.156C18.061 12.154 18.065 12.1525 18.0701 12.1525C18.0752 12.1525 18.0787 12.1525 18.0827 12.1575C18.0883 12.1722 18.0934 12.1884 18.0994 12.203L18.4331 13.1526C18.4544 13.2158 18.4766 13.2836 18.5004 13.3382C18.5221 13.3887 18.5606 13.41 18.6202 13.41H18.6308V13.4646C18.5494 13.461 18.467 13.4575 18.3801 13.4575C18.2931 13.4575 18.2 13.461 18.1075 13.4646V13.41H18.1277C18.1692 13.41 18.2405 13.4034 18.2405 13.3579C18.2405 13.3341 18.2238 13.2851 18.2036 13.2269L18.1333 13.0161H17.7217L17.6636 13.2052ZM17.9285 12.4007H17.925L17.7561 12.9144H18.0964L17.9285 12.4007Z" fill="#231F20"/>
<path d="M18.6314 13.4727C18.5494 13.4696 18.4675 13.4656 18.3816 13.4656C18.2956 13.4656 18.2021 13.4696 18.109 13.4727H18.1009V13.4029H18.1282C18.1707 13.4029 18.2334 13.3928 18.2334 13.3579C18.2334 13.3372 18.2172 13.2876 18.1965 13.2295L18.1277 13.0242H17.7268L17.6712 13.2072C17.653 13.2694 17.6312 13.3174 17.6317 13.3463C17.6317 13.3908 17.7 13.4024 17.7596 13.4024H17.7875V13.4727H17.7794C17.7071 13.4691 17.6322 13.4651 17.5604 13.4651C17.4952 13.4651 17.43 13.4691 17.3647 13.4722H17.3567V13.4024H17.3749C17.4426 13.4014 17.4992 13.3624 17.5255 13.2891L17.8163 12.4558C17.8395 12.3886 17.8719 12.2981 17.8881 12.2258C17.9452 12.2061 18.0185 12.1697 18.0534 12.1474C18.058 12.1454 18.064 12.1434 18.0711 12.1434C18.0757 12.1429 18.0853 12.1444 18.0908 12.154C18.0959 12.1681 18.1014 12.1848 18.107 12.1995L18.4412 13.1491C18.463 13.2123 18.4847 13.2795 18.5085 13.3336C18.5297 13.3817 18.5626 13.4009 18.6207 13.4019H18.6394V13.4722L18.6314 13.4727ZM18.1166 13.4565C18.2061 13.4535 18.2946 13.4499 18.3816 13.4499C18.4685 13.4499 18.5449 13.4535 18.6238 13.4565V13.4186H18.6207C18.559 13.4186 18.5161 13.3943 18.4938 13.3412C18.4695 13.2861 18.4478 13.2188 18.4266 13.1551L18.0929 12.2056C18.0873 12.1909 18.0817 12.1747 18.0772 12.1621C18.0772 12.1621 18.0762 12.1612 18.0741 12.1595H18.0711C18.0676 12.1595 18.0655 12.1606 18.0605 12.1621C18.0256 12.1843 17.9528 12.2207 17.8987 12.2349C17.8881 12.3042 17.8547 12.3942 17.8314 12.4614L17.5407 13.2947C17.5129 13.3736 17.4502 13.4181 17.3754 13.4181H17.3723V13.456C17.435 13.4529 17.4977 13.4494 17.5609 13.4494C17.6312 13.4494 17.7025 13.4529 17.7728 13.456V13.4181H17.7601C17.7015 13.417 17.6186 13.411 17.6165 13.3463C17.6165 13.3104 17.6393 13.2638 17.657 13.2027L17.7167 13.008H18.1404L18.2127 13.2239C18.2329 13.2825 18.2491 13.3306 18.2491 13.3574C18.2466 13.413 18.1702 13.417 18.1288 13.4181H18.1171L18.1166 13.4565ZM17.7455 12.922L17.9204 12.3931H17.929H17.9351L18.1065 12.922H17.7455ZM17.7677 12.9064H18.0858L17.9275 12.4204L17.7677 12.9064Z" fill="#231F20"/>
<path d="M19.0895 13.2871C19.0895 13.3599 19.14 13.3817 19.1982 13.3887C19.2725 13.3943 19.3544 13.3943 19.4383 13.3852C19.5142 13.3766 19.5799 13.3326 19.6123 13.2871C19.6411 13.2472 19.6573 13.1966 19.6689 13.1561H19.7215C19.7013 13.2598 19.676 13.3614 19.6537 13.4651C19.494 13.4651 19.3342 13.458 19.1749 13.458C19.0156 13.458 18.8548 13.4651 18.6951 13.4651V13.41H18.7198C18.7861 13.41 18.8564 13.4014 18.8564 13.2886V12.3557C18.8564 12.2612 18.7856 12.2526 18.7198 12.2526H18.6951V12.1975C18.7911 12.1975 18.8857 12.205 18.9818 12.205C19.0778 12.205 19.1653 12.1975 19.2578 12.1975V12.2526H19.2123C19.1436 12.2526 19.0895 12.2546 19.0895 12.3507V13.2871Z" fill="#231F20"/>
<path d="M19.6532 13.4727C19.4935 13.4727 19.3337 13.4656 19.1744 13.4656C19.0151 13.4656 18.8543 13.4727 18.6946 13.4727H18.687V13.4029H18.7198C18.7856 13.4014 18.8483 13.3963 18.8488 13.2886V12.3557C18.8483 12.2677 18.7861 12.2612 18.7198 12.2602H18.687V12.1904H18.6946C18.7911 12.1904 18.8857 12.1975 18.9818 12.1975C19.0778 12.1975 19.1648 12.1904 19.2578 12.1904H19.2649V12.2602H19.2118C19.1415 12.2622 19.0975 12.2592 19.096 12.3512V13.2876C19.097 13.3554 19.141 13.3731 19.1982 13.3817C19.2295 13.3837 19.2639 13.3852 19.2983 13.3852C19.3428 13.3852 19.3888 13.3832 19.4363 13.3781C19.5101 13.3695 19.5733 13.327 19.6052 13.2836C19.633 13.2446 19.6492 13.1946 19.6598 13.1551L19.6618 13.1491H19.7301L19.7281 13.1592C19.7078 13.2628 19.6826 13.3645 19.6608 13.4681L19.6588 13.4737H19.6527L19.6532 13.4727ZM19.6472 13.457C19.6679 13.3584 19.6922 13.2623 19.7109 13.1637H19.6735C19.6623 13.2037 19.6462 13.2522 19.6178 13.2916C19.584 13.3392 19.5167 13.3832 19.4378 13.3928C19.3903 13.3978 19.3433 13.4004 19.2988 13.4004C19.2639 13.4004 19.229 13.3988 19.1966 13.3968C19.138 13.3902 19.0804 13.365 19.0814 13.2876V12.3512C19.0814 12.2501 19.1451 12.245 19.2128 12.245H19.2502V12.2061C19.1607 12.2061 19.0723 12.2131 18.9823 12.2131C18.8923 12.2131 18.7957 12.2066 18.7031 12.2061V12.245H18.7203C18.7856 12.245 18.8644 12.2561 18.8644 12.3562V13.2891C18.8644 13.4064 18.7856 13.4191 18.7203 13.4191H18.7031V13.4575C18.8599 13.4575 19.0171 13.4504 19.1754 13.4504C19.3337 13.4504 19.4904 13.457 19.6482 13.4575" fill="#231F20"/>
<path d="M19.6987 12.1459C19.808 12.1459 19.8899 12.2303 19.8899 12.3375C19.8899 12.4447 19.808 12.5281 19.6987 12.5281C19.5895 12.5281 19.5076 12.4447 19.5076 12.3375C19.5076 12.2303 19.59 12.1459 19.6987 12.1459ZM19.6987 12.4922C19.7842 12.4922 19.8499 12.4194 19.8499 12.337C19.8499 12.2546 19.7857 12.1808 19.6987 12.1808C19.6118 12.1808 19.547 12.2546 19.547 12.337C19.547 12.4194 19.6123 12.4922 19.6987 12.4922ZM19.6037 12.4381V12.4285C19.6269 12.4255 19.6315 12.4265 19.6315 12.4113V12.2703C19.6315 12.2501 19.6295 12.2435 19.6042 12.2445V12.2344H19.7023C19.7351 12.2344 19.7665 12.2506 19.7665 12.2854C19.7665 12.3143 19.7478 12.3345 19.7215 12.3431L19.7528 12.3871C19.768 12.4063 19.7842 12.4255 19.7953 12.4321V12.4381H19.7579C19.7402 12.4381 19.7245 12.4002 19.6891 12.3502H19.6684V12.4134C19.6684 12.4265 19.673 12.4255 19.6957 12.4285V12.4381H19.6037ZM19.6684 12.337H19.6906C19.7154 12.337 19.7265 12.3183 19.7265 12.2885C19.7265 12.2586 19.7083 12.2475 19.6891 12.2475H19.6684V12.337Z" fill="#231F20"/>
<path d="M8.36401 5.7401C8.36401 4.04169 9.74085 2.66486 11.4393 2.66486C13.1377 2.66486 14.5145 4.04169 14.5145 5.7401C14.5145 7.43852 13.1377 8.81535 11.4393 8.81535C9.74085 8.81535 8.36401 7.43852 8.36401 5.7401Z" fill="white"/>
<path d="M11.4433 8.86994C9.68119 8.87803 8.23053 7.45063 8.23053 5.71227C8.23104 3.81363 9.68119 2.5 11.4433 2.5H12.2695C14.0109 2.5 15.6001 3.81262 15.6001 5.71278C15.6001 7.45013 14.0109 8.87044 12.2695 8.87044H11.4433V8.86994ZM11.4504 2.76343C9.83995 2.76394 8.53492 4.06897 8.53492 5.67941C8.53492 7.28984 9.83995 8.59437 11.4504 8.59487C13.0608 8.59487 14.3659 7.28984 14.3664 5.67941C14.3664 4.06897 13.0608 2.76394 11.4504 2.76343ZM10.7885 7.40361V3.9547C10.0958 4.22167 9.60433 4.89214 9.60231 5.67941C9.60433 6.46617 10.0958 7.13714 10.7885 7.40361ZM13.299 5.67941C13.2975 4.89163 12.8055 4.22016 12.1118 3.95419V7.40411C12.8055 7.13765 13.2975 6.46667 13.299 5.6789" fill="#0B4F95"/>
</svg>
