<svg width="31" height="16" viewBox="0 0 31 16" fill="none" xmlns="http://www.w3.org/2000/svg">
<path d="M22.1379 0H8.02099C3.60945 0 0 3.6 0 8C0 12.4 3.60945 16 8.02099 16H22.1379C26.5495 16 30.1589 12.4 30.1589 8C30.1589 3.6 26.5495 0 22.1379 0Z" fill="white"/>
<path d="M22.1379 0.648C23.1285 0.648 24.0911 0.844 24.9974 1.228C25.8757 1.6 26.6618 2.132 27.3436 2.808C28.0213 3.484 28.5547 4.272 28.9277 5.148C29.3127 6.052 29.5092 7.012 29.5092 8C29.5092 8.988 29.3127 9.948 28.9277 10.852C28.5547 11.728 28.0213 12.512 27.3436 13.192C26.6658 13.868 25.8757 14.4 24.9974 14.772C24.0911 15.156 23.1285 15.352 22.1379 15.352H8.02099C7.0304 15.352 6.06788 15.156 5.16151 14.772C4.28321 14.4 3.49715 13.868 2.81537 13.192C2.13759 12.516 1.6042 11.728 1.23122 10.852C0.846215 9.948 0.6497 8.988 0.6497 8C0.6497 7.012 0.846215 6.052 1.23122 5.148C1.6042 4.272 2.13759 3.488 2.81537 2.808C3.49314 2.132 4.28321 1.6 5.16151 1.228C6.06788 0.844 7.0304 0.648 8.02099 0.648H22.1379ZM22.1379 0H8.02099C3.60945 0 0 3.6 0 8C0 12.4 3.60945 16 8.02099 16H22.1379C26.5495 16 30.1589 12.4 30.1589 8C30.1589 3.6 26.5495 0 22.1379 0Z" fill="#3C4043"/>
<path d="M14.3813 8.56772V10.9877H13.6113V5.01172H15.6527C16.17 5.01172 16.6112 5.18372 16.9721 5.52772C17.3411 5.87172 17.5256 6.29172 17.5256 6.78772C17.5256 7.29572 17.3411 7.71572 16.9721 8.05572C16.6152 8.39572 16.174 8.56372 15.6527 8.56372H14.3813V8.56772ZM14.3813 5.74772V7.83172H15.6687C15.9735 7.83172 16.2302 7.72772 16.4307 7.52372C16.6352 7.31972 16.7395 7.07172 16.7395 6.79172C16.7395 6.51572 16.6352 6.27172 16.4307 6.06772C16.2302 5.85572 15.9775 5.75172 15.6687 5.75172H14.3813V5.74772Z" fill="#3C4043"/>
<path d="M19.5387 6.76367C20.1082 6.76367 20.5573 6.91567 20.8862 7.21967C21.2151 7.52367 21.3795 7.93967 21.3795 8.46767V10.9877H20.6456V10.4197H20.6135C20.2967 10.8877 19.8716 11.1197 19.3422 11.1197C18.889 11.1197 18.512 10.9877 18.2072 10.7197C17.9024 10.4517 17.75 10.1197 17.75 9.71967C17.75 9.29567 17.9104 8.95967 18.2313 8.71167C18.5521 8.45967 18.9812 8.33567 19.5146 8.33567C19.9718 8.33567 20.3488 8.41967 20.6416 8.58767V8.41167C20.6416 8.14367 20.5373 7.91967 20.3247 7.73167C20.1122 7.54367 19.8635 7.45167 19.5788 7.45167C19.1497 7.45167 18.8088 7.63167 18.5601 7.99567L17.8823 7.57167C18.2553 7.03167 18.8088 6.76367 19.5387 6.76367ZM18.5441 9.73167C18.5441 9.93167 18.6283 10.0997 18.8008 10.2317C18.9692 10.3637 19.1697 10.4317 19.3983 10.4317C19.7232 10.4317 20.0119 10.3117 20.2646 10.0717C20.5172 9.83167 20.6456 9.55167 20.6456 9.22767C20.4049 9.03967 20.0721 8.94367 19.643 8.94367C19.3301 8.94367 19.0695 9.01967 18.8609 9.16767C18.6484 9.32367 18.5441 9.51167 18.5441 9.73167Z" fill="#3C4043"/>
<path d="M25.5665 6.89551L22.9998 12.7835H22.2057L23.1602 10.7235L21.4678 6.89551H22.306L23.5252 9.83151H23.5412L24.7283 6.89551H25.5665Z" fill="#3C4043"/>
<path d="M11.3182 8.07978C11.3182 7.82938 11.2957 7.58978 11.254 7.35938H8.02637V8.67937L9.88523 8.67978C9.80984 9.11898 9.5672 9.49337 9.19543 9.74297V10.5994H10.3019C10.948 10.003 11.3182 9.12138 11.3182 8.07978Z" fill="#4285F4"/>
<path d="M9.19613 9.74323C8.88812 9.95043 8.49148 10.0716 8.02747 10.0716C7.13112 10.0716 6.37073 9.46923 6.09842 8.65723H4.95703V9.54043C5.52251 10.6596 6.68475 11.4276 8.02747 11.4276C8.9555 11.4276 9.73514 11.1232 10.3026 10.5992L9.19613 9.74323Z" fill="#34A853"/>
<path d="M5.99106 8.00169C5.99106 7.77369 6.02916 7.55329 6.09854 7.34609V6.46289H4.95715C4.72334 6.92569 4.5918 7.44809 4.5918 8.00169C4.5918 8.55529 4.72374 9.07769 4.95715 9.54049L6.09854 8.65729C6.02916 8.45009 5.99106 8.22969 5.99106 8.00169Z" fill="#FABB05"/>
<path d="M8.02747 5.93217C8.53399 5.93217 8.98758 6.10617 9.34572 6.44617L10.3263 5.46897C9.73073 4.91577 8.95429 4.57617 8.02747 4.57617C6.68515 4.57617 5.52251 5.34417 4.95703 6.46337L6.09842 7.34657C6.37073 6.53457 7.13112 5.93217 8.02747 5.93217Z" fill="#E94235"/>
</svg>
