<svg width="36" height="24" viewBox="0 0 36 24" fill="none" xmlns="http://www.w3.org/2000/svg">
<rect x="0.75" y="0.75" width="34.5" height="22.5" rx="5.25" fill="white" stroke="#EEEEEE" stroke-width="1.5"/>
<g clip-path="url(#clip0_403_1005)">
<path d="M29.92 17.4891C29.92 19.5319 28.2587 21.1953 26.2186 21.1953H6.07996V6.51637C6.07996 4.47357 7.74118 2.81015 9.78128 2.81015H29.92V17.4891Z" fill="white"/>
<path d="M23.3625 13.7245H24.8926C24.9363 13.7245 25.0383 13.7099 25.0821 13.7099C25.3735 13.6516 25.6212 13.3889 25.6212 13.0241C25.6212 12.674 25.3735 12.4113 25.0821 12.3384C25.0383 12.3238 24.9509 12.3238 24.8926 12.3238H23.3625V13.7245Z" fill="url(#paint0_linear_403_1005)"/>
<path d="M24.7177 4.05042C23.2605 4.05042 22.0656 5.23232 22.0656 6.70605V9.46383H25.8106C25.8981 9.46383 26.0001 9.46383 26.0729 9.47843C26.9181 9.5222 27.5447 9.95994 27.5447 10.7187C27.5447 11.3169 27.1221 11.8276 26.3352 11.9298V11.959C27.195 12.0173 27.8507 12.4988 27.8507 13.243C27.8507 14.0455 27.1221 14.5708 26.1604 14.5708H22.051V19.9697H25.9418C27.399 19.9697 28.5939 18.7878 28.5939 17.314V4.05042H24.7177Z" fill="url(#paint1_linear_403_1005)"/>
<path d="M25.4318 10.8938C25.4318 10.5436 25.1841 10.3101 24.8926 10.2664C24.8635 10.2664 24.7906 10.2518 24.7469 10.2518H23.3625V11.5358H24.7469C24.7906 11.5358 24.8781 11.5358 24.8926 11.5212C25.1841 11.4775 25.4318 11.244 25.4318 10.8938Z" fill="url(#paint2_linear_403_1005)"/>
<path d="M10.0582 4.05042C8.60097 4.05042 7.40605 5.23232 7.40605 6.70605V13.2576C8.14923 13.6224 8.92155 13.8559 9.69388 13.8559C10.6119 13.8559 11.1074 13.3014 11.1074 12.5426V9.44924H13.3806V12.528C13.3806 13.7245 12.6374 14.7022 10.1165 14.7022C8.58639 14.7022 7.39148 14.3666 7.39148 14.3666V19.9551H11.2822C12.7394 19.9551 13.9344 18.7732 13.9344 17.2994V4.05042H10.0582Z" fill="url(#paint3_linear_403_1005)"/>
<path d="M17.388 4.05042C15.9308 4.05042 14.7358 5.23232 14.7358 6.70605V10.1788C15.4062 9.60975 16.5719 9.24496 18.4517 9.33251C19.4572 9.37629 20.5355 9.65352 20.5355 9.65352V10.7771C19.9964 10.4998 19.3552 10.2518 18.5246 10.1934C17.0965 10.0913 16.2368 10.7917 16.2368 12.0173C16.2368 13.2576 17.0965 13.958 18.5246 13.8413C19.3552 13.7829 19.9964 13.5203 20.5355 13.2576V14.3811C20.5355 14.3811 19.4718 14.6584 18.4517 14.7022C16.5719 14.7897 15.4062 14.4249 14.7358 13.8559V19.9843H18.6266C20.0838 19.9843 21.2787 18.8023 21.2787 17.3286V4.05042H17.388Z" fill="url(#paint4_linear_403_1005)"/>
</g>
<defs>
<linearGradient id="paint0_linear_403_1005" x1="22.0632" y1="13.0259" x2="28.6115" y2="13.0259" gradientUnits="userSpaceOnUse">
<stop stop-color="#007940"/>
<stop offset="0.2285" stop-color="#00873F"/>
<stop offset="0.7433" stop-color="#40A737"/>
<stop offset="1" stop-color="#5CB531"/>
</linearGradient>
<linearGradient id="paint1_linear_403_1005" x1="22.063" y1="12.0037" x2="28.6118" y2="12.0037" gradientUnits="userSpaceOnUse">
<stop stop-color="#007940"/>
<stop offset="0.2285" stop-color="#00873F"/>
<stop offset="0.7433" stop-color="#40A737"/>
<stop offset="1" stop-color="#5CB531"/>
</linearGradient>
<linearGradient id="paint2_linear_403_1005" x1="22.063" y1="10.892" x2="28.6116" y2="10.892" gradientUnits="userSpaceOnUse">
<stop stop-color="#007940"/>
<stop offset="0.2285" stop-color="#00873F"/>
<stop offset="0.7433" stop-color="#40A737"/>
<stop offset="1" stop-color="#5CB531"/>
</linearGradient>
<linearGradient id="paint3_linear_403_1005" x1="7.40297" y1="12.0037" x2="14.0527" y2="12.0037" gradientUnits="userSpaceOnUse">
<stop stop-color="#1F286F"/>
<stop offset="0.4751" stop-color="#004E94"/>
<stop offset="0.8261" stop-color="#0066B1"/>
<stop offset="1" stop-color="#006FBC"/>
</linearGradient>
<linearGradient id="paint4_linear_403_1005" x1="14.6982" y1="12.0037" x2="21.1566" y2="12.0037" gradientUnits="userSpaceOnUse">
<stop stop-color="#6C2C2F"/>
<stop offset="0.1735" stop-color="#882730"/>
<stop offset="0.5731" stop-color="#BE1833"/>
<stop offset="0.8585" stop-color="#DC0436"/>
<stop offset="1" stop-color="#E60039"/>
</linearGradient>
<clipPath id="clip0_403_1005">
<rect width="24" height="18.5454" fill="white" transform="translate(6 2.73001)"/>
</clipPath>
</defs>
</svg>
