<svg width="24" height="16" viewBox="0 0 24 16" fill="none" xmlns="http://www.w3.org/2000/svg">
<rect x="0.5" y="0.5" width="23" height="15" rx="3.5" fill="white"/>
<path d="M14.2675 3.80664H9.72046V12.1928H14.2675V3.80664Z" fill="#FF5F00"/>
<path d="M10.0091 8.00032C10.0084 7.19267 10.1867 6.39545 10.5306 5.66899C10.8745 4.94254 11.3749 4.30589 11.9939 3.80726C11.2273 3.18884 10.3066 2.80425 9.33712 2.69745C8.36761 2.59066 7.38838 2.76596 6.51136 3.20333C5.63434 3.6407 4.89491 4.32249 4.37759 5.17077C3.86027 6.01905 3.58594 6.99959 3.58594 8.00032C3.58594 9.00105 3.86027 9.98159 4.37759 10.8299C4.89491 11.6781 5.63434 12.3599 6.51136 12.7973C7.38838 13.2347 8.36761 13.41 9.33712 13.3032C10.3066 13.1964 11.2273 12.8118 11.9939 12.1934C11.3749 11.6947 10.8745 11.0581 10.5306 10.3316C10.1867 9.60518 10.0084 8.80796 10.0091 8.00032Z" fill="#EB001B"/>
<path d="M20.4016 8.00032C20.4016 9.00103 20.1273 9.98157 19.61 10.8298C19.0928 11.6781 18.3534 12.3599 17.4763 12.7973C16.5993 13.2347 15.6201 13.41 14.6506 13.3032C13.6811 13.1964 12.7605 12.8118 11.9939 12.1934C12.6124 11.6942 13.1124 11.0575 13.4562 10.3311C13.8 9.60481 13.9787 8.80783 13.9787 8.00032C13.9787 7.1928 13.8 6.39582 13.4562 5.66948C13.1124 4.94314 12.6124 4.3064 11.9939 3.80726C12.7605 3.18883 13.6811 2.80425 14.6506 2.69745C15.6201 2.59066 16.5993 2.76597 17.4763 3.20334C18.3534 3.64072 19.0928 4.32251 19.61 5.17079C20.1273 6.01906 20.4016 6.9996 20.4016 8.00032Z" fill="#F79E1B"/>
<path d="M19.9059 11.3047V11.133H19.9733V11.098H19.8015V11.133H19.869V11.3047H19.9059ZM20.2394 11.3047V11.0977H20.1867L20.1261 11.24L20.0656 11.0977H20.0129V11.3047H20.0501V11.1485L20.1069 11.2831H20.1454L20.2022 11.1482V11.3047H20.2394Z" fill="#F79E1B"/>
<rect x="0.5" y="0.5" width="23" height="15" rx="3.5" stroke="#CCD2D8"/>
</svg>
