<svg width="30" height="20" viewBox="0 0 30 20" fill="none" xmlns="http://www.w3.org/2000/svg">
<rect x="0.625" y="0.625" width="28.75" height="18.75" rx="4.375" fill="white"/>
<path fill-rule="evenodd" clip-rule="evenodd" d="M13.6967 9.86673L13.8158 9.10807L13.5505 9.1019H12.2837L13.1641 3.5036C13.1668 3.48665 13.1757 3.47092 13.1887 3.45972C13.2017 3.44852 13.2182 3.44238 13.2356 3.44238H15.3717C16.0809 3.44238 16.5703 3.59035 16.8257 3.88244C16.9455 4.01947 17.0218 4.16269 17.0587 4.32026C17.0975 4.48562 17.0981 4.68316 17.0603 4.92414L17.0576 4.94167V5.09611L17.1774 5.16417C17.2782 5.21784 17.3584 5.27925 17.4199 5.34953C17.5224 5.46674 17.5886 5.61568 17.6167 5.79218C17.6456 5.97371 17.636 6.18982 17.5886 6.43442C17.534 6.71576 17.4456 6.96083 17.3263 7.16133C17.2166 7.34608 17.0768 7.49937 16.9107 7.61808C16.7522 7.73095 16.5639 7.8166 16.351 7.8714C16.1446 7.92527 15.9094 7.95243 15.6513 7.95243H15.4851C15.3663 7.95243 15.2508 7.9954 15.1602 8.07233C15.0693 8.15091 15.0092 8.25825 14.9907 8.3756L14.9782 8.44394L14.7677 9.78112L14.7582 9.83017C14.7557 9.84574 14.7513 9.85347 14.745 9.85871C14.7393 9.86352 14.7311 9.86673 14.7231 9.86673H13.6967Z" fill="#28356A"/>
<path fill-rule="evenodd" clip-rule="evenodd" d="M17.2906 4.95996C17.2843 5.00084 17.277 5.04259 17.2688 5.08556C16.9871 6.53603 16.0233 7.03711 14.7924 7.03711H14.1657C14.0152 7.03711 13.8883 7.14667 13.8649 7.29557L13.4531 9.91489C13.4379 10.0127 13.513 10.1008 13.6114 10.1008H14.723C14.8546 10.1008 14.9664 10.0049 14.9871 9.87471L14.998 9.81811L15.2073 8.48617L15.2208 8.41311C15.2413 8.28246 15.3533 8.18653 15.4849 8.18653H15.6512C16.7281 8.18653 17.5712 7.74808 17.8176 6.47915C17.9205 5.94906 17.8672 5.50646 17.5949 5.19517C17.5125 5.10136 17.4102 5.02342 17.2906 4.95996Z" fill="#298FC2"/>
<path fill-rule="evenodd" clip-rule="evenodd" d="M16.9961 4.84261C16.953 4.83 16.9086 4.81862 16.863 4.80832C16.8172 4.79828 16.7704 4.78939 16.7221 4.78158C16.5531 4.7542 16.368 4.74121 16.1696 4.74121H14.4954C14.4541 4.74121 14.4149 4.75055 14.3799 4.76744C14.3026 4.80467 14.2453 4.87799 14.2314 4.96774L13.8752 7.23013L13.865 7.29606C13.8884 7.14716 14.0153 7.03755 14.1658 7.03755H14.7925C16.0234 7.03755 16.9872 6.53623 17.2689 5.086C17.2773 5.04308 17.2844 5.00132 17.2907 4.96044C17.2194 4.9225 17.1423 4.89007 17.0592 4.86244C17.0386 4.85559 17.0174 4.849 16.9961 4.84261Z" fill="#22284F"/>
<path fill-rule="evenodd" clip-rule="evenodd" d="M14.2314 4.96729C14.2453 4.87754 14.3026 4.80423 14.3799 4.76725C14.4152 4.7503 14.4541 4.74096 14.4953 4.74096H16.1696C16.3679 4.74096 16.5531 4.75401 16.7221 4.78139C16.7704 4.78913 16.8172 4.79809 16.863 4.80813C16.9086 4.81836 16.953 4.82982 16.996 4.84235C17.0174 4.84875 17.0386 4.8554 17.0593 4.86199C17.1424 4.88963 17.2197 4.92232 17.291 4.96C17.3748 4.42398 17.2903 4.05903 17.0013 3.72856C16.6827 3.36469 16.1077 3.20898 15.3719 3.20898H13.2357C13.0854 3.20898 12.9572 3.31857 12.934 3.46775L12.0443 9.12359C12.0267 9.23547 12.1128 9.33645 12.2253 9.33645H13.5441L14.2314 4.96729Z" fill="#28356A"/>
<path fill-rule="evenodd" clip-rule="evenodd" d="M7.40288 11.4072H5.84543C5.73883 11.4072 5.64819 11.4849 5.63154 11.5904L5.00163 15.5955C4.98913 15.6746 5.05018 15.7458 5.1301 15.7458H5.87362C5.98019 15.7458 6.07084 15.6682 6.08749 15.5624L6.25738 14.4822C6.27374 14.3764 6.36458 14.2988 6.47099 14.2988H6.96401C7.98994 14.2988 8.58201 13.8009 8.73671 12.8143C8.80637 12.3826 8.73963 12.0435 8.53805 11.806C8.3167 11.5452 7.9241 11.4072 7.40288 11.4072ZM7.58253 12.8701C7.49735 13.4305 7.07036 13.4305 6.65753 13.4305H6.42246L6.58735 12.3838C6.59716 12.3205 6.65177 12.2739 6.71559 12.2739H6.82331C7.10456 12.2739 7.36986 12.2739 7.50692 12.4347C7.58871 12.5306 7.61371 12.6731 7.58253 12.8701Z" fill="#28356A"/>
<path fill-rule="evenodd" clip-rule="evenodd" d="M12.0981 12.8213H11.3523C11.2888 12.8213 11.2338 12.8679 11.2241 12.9312L11.1911 13.1404L11.1389 13.0646C10.9775 12.8296 10.6174 12.751 10.2581 12.751C9.43387 12.751 8.72997 13.377 8.59286 14.2551C8.5216 14.6931 8.62291 15.112 8.87071 15.4041C9.098 15.6727 9.42321 15.7846 9.8101 15.7846C10.4742 15.7846 10.8424 15.3564 10.8424 15.3564L10.8092 15.5642C10.7967 15.6437 10.8577 15.7149 10.9372 15.7149H11.6089C11.7158 15.7149 11.8059 15.6373 11.8228 15.5316L12.2259 12.9716C12.2386 12.8928 12.1778 12.8213 12.0981 12.8213ZM11.0585 14.2771C10.9865 14.7043 10.6484 14.9912 10.217 14.9912C10.0005 14.9912 9.82746 14.9215 9.71624 14.7895C9.60602 14.6585 9.56418 14.4719 9.59918 14.264C9.66644 13.8404 10.0103 13.5442 10.435 13.5442C10.6468 13.5442 10.819 13.6148 10.9324 13.7479C11.046 13.8824 11.0911 14.0701 11.0585 14.2771Z" fill="#28356A"/>
<path fill-rule="evenodd" clip-rule="evenodd" d="M16.013 12.8857H15.2635C15.192 12.8857 15.1248 12.9214 15.0843 12.981L14.0506 14.5079L13.6124 13.0406C13.5849 12.9488 13.5004 12.8857 13.4047 12.8857H12.6683C12.5787 12.8857 12.5166 12.9735 12.5451 13.058L13.3706 15.4875L12.5945 16.5862C12.5334 16.6728 12.5949 16.7918 12.7004 16.7918H13.4489C13.52 16.7918 13.5865 16.757 13.6268 16.6986L16.1195 13.0902C16.1792 13.0038 16.1179 12.8857 16.013 12.8857Z" fill="#28356A"/>
<path fill-rule="evenodd" clip-rule="evenodd" d="M18.5114 11.4072H16.9538C16.8475 11.4072 16.7568 11.4849 16.7402 11.5904L16.1103 15.5955C16.0978 15.6746 16.1588 15.7458 16.2383 15.7458H17.0376C17.1118 15.7458 17.1754 15.6915 17.187 15.6175L17.3658 14.4822C17.3821 14.3764 17.4731 14.2988 17.5794 14.2988H18.0722C19.0983 14.2988 19.6902 13.8009 19.8451 12.8143C19.915 12.3826 19.8478 12.0435 19.6462 11.806C19.4251 11.5452 19.0327 11.4072 18.5114 11.4072ZM18.6911 12.8701C18.6062 13.4305 18.1792 13.4305 17.7661 13.4305H17.5314L17.6964 12.3838C17.7062 12.3205 17.7604 12.2739 17.8244 12.2739H17.9321C18.2131 12.2739 18.4787 12.2739 18.6157 12.4347C18.6975 12.5306 18.7223 12.6731 18.6911 12.8701Z" fill="#298FC2"/>
<path fill-rule="evenodd" clip-rule="evenodd" d="M23.2057 12.8213H22.4603C22.3964 12.8213 22.342 12.8679 22.3324 12.9312L22.2994 13.1404L22.247 13.0646C22.0855 12.8296 21.7257 12.751 21.3663 12.751C20.5422 12.751 19.8385 13.377 19.7015 14.2551C19.6304 14.6931 19.7312 15.112 19.979 15.4041C20.2068 15.6727 20.5315 15.7846 20.9184 15.7846C21.5825 15.7846 21.9507 15.3564 21.9507 15.3564L21.9175 15.5642C21.905 15.6437 21.966 15.7149 22.0459 15.7149H22.7175C22.8238 15.7149 22.9145 15.6373 22.9311 15.5316L23.3344 12.9716C23.3467 12.8928 23.2856 12.8213 23.2057 12.8213ZM22.1662 14.2771C22.0947 14.7043 21.756 14.9912 21.3247 14.9912C21.1085 14.9912 20.9351 14.9215 20.8239 14.7895C20.7137 14.6585 20.6722 14.4719 20.7068 14.264C20.7745 13.8404 21.1179 13.5442 21.5427 13.5442C21.7544 13.5442 21.9266 13.6148 22.04 13.7479C22.1541 13.8824 22.1991 14.0701 22.1662 14.2771Z" fill="#298FC2"/>
<path fill-rule="evenodd" clip-rule="evenodd" d="M24.0227 11.5173L23.3835 15.5957C23.371 15.6748 23.432 15.7459 23.5114 15.7459H24.1541C24.2609 15.7459 24.3515 15.6684 24.3679 15.5626L24.9983 11.5577C25.0109 11.4787 24.9498 11.4072 24.8703 11.4072H24.1507C24.0872 11.4074 24.0325 11.4541 24.0227 11.5173Z" fill="#298FC2"/>
<rect x="0.625" y="0.625" width="28.75" height="18.75" rx="4.375" stroke="#CCD2D8" stroke-width="1.25"/>
</svg>
