<svg width="36" height="24" viewBox="0 0 36 24" fill="none" xmlns="http://www.w3.org/2000/svg">
<path d="M33 0H3C1.34315 0 0 1.34315 0 3V21C0 22.6569 1.34315 24 3 24H33C34.6569 24 36 22.6569 36 21V3C36 1.34315 34.6569 0 33 0Z" fill="white"/>
<path d="M33 0H3C1.34315 0 0 1.34315 0 3V21C0 22.6569 1.34315 24 3 24H33C34.6569 24 36 22.6569 36 21V3C36 1.34315 34.6569 0 33 0Z" fill="white"/>
<path d="M24.1966 9H23.0973V14.9496H24.1966V9Z" fill="#191C1F"/>
<path d="M31.9994 10.5833V11.5066H30.8628V13.5831C30.8628 13.7563 30.901 13.9067 30.9599 13.9662C31.024 14.0312 31.1349 14.0642 31.2893 14.0642H31.9994V14.9874H31.029C30.6016 14.9874 30.2804 14.8845 30.0742 14.6815C29.868 14.4786 29.7635 14.1713 29.7635 13.7681V9.37964H30.8628V10.5833H31.9994Z" fill="#191C1F"/>
<path d="M15.6303 13.7917L16.7669 10.5833H17.9217L16.2809 14.9498H14.9796L13.3388 10.5833H14.4937L15.6303 13.7917Z" fill="#191C1F"/>
<path d="M27.8434 13.4854C27.9285 13.2875 27.9717 13.047 27.9717 12.7706V10.5833H29.071V14.9496H28.1062L28.0077 14.4406C27.8777 14.5836 27.7119 14.7112 27.5138 14.8203C27.2968 14.9395 27.0123 15 26.6686 15C26.4301 15 26.2014 14.9671 25.9887 14.9022C25.7749 14.8369 25.5833 14.726 25.4193 14.5725C25.2551 14.4189 25.1231 14.2118 25.0271 13.9573C24.9311 13.7036 24.8825 13.3836 24.8825 13.0063V10.5833H25.9818V12.8885C25.9818 13.2855 26.0603 13.588 26.2153 13.7876C26.3687 13.9851 26.6059 14.0853 26.9202 14.0853C27.1398 14.0853 27.3294 14.0343 27.4836 13.9336C27.6379 13.833 27.7589 13.6822 27.8434 13.4854Z" fill="#191C1F"/>
<path fill-rule="evenodd" clip-rule="evenodd" d="M21.4169 10.8137C21.0705 10.6274 20.6591 10.533 20.1944 10.533C19.7354 10.533 19.3255 10.6274 18.9762 10.8136C18.6265 11.0004 18.3518 11.2641 18.1595 11.5974C17.9676 11.9305 17.8703 12.3253 17.8703 12.7707C17.8703 13.2107 17.9676 13.6027 18.1595 13.9358C18.3516 14.269 18.6265 14.5327 18.9762 14.7194C19.3255 14.9056 19.7354 15 20.1944 15C20.6591 15 21.0704 14.9056 21.4169 14.7193C21.7637 14.5327 22.037 14.269 22.2292 13.9357C22.4212 13.6025 22.5186 13.2105 22.5186 12.7707C22.5186 12.3254 22.4212 11.9307 22.2292 11.5974C22.0369 11.264 21.7636 11.0003 21.4169 10.8137ZM20.8361 13.9335C20.659 14.0454 20.4431 14.1021 20.1944 14.1021C19.9514 14.1021 19.7369 14.0454 19.5569 13.9335C19.3765 13.8214 19.235 13.6633 19.1363 13.4634C19.0372 13.2633 18.9869 13.0303 18.9869 12.7707C18.9869 12.5058 19.0372 12.2714 19.1363 12.0741C19.235 11.8769 19.3766 11.7187 19.5571 11.6038C19.7371 11.4891 19.9516 11.4309 20.1944 11.4309C20.443 11.4309 20.6588 11.4891 20.8359 11.6037C21.0136 11.7186 21.1537 11.8769 21.2526 12.0741C21.3517 12.272 21.402 12.5064 21.402 12.7707C21.402 13.0297 21.3517 13.2628 21.2526 13.4634C21.1538 13.6633 21.0136 13.8215 20.8361 13.9335Z" fill="#191C1F"/>
<path d="M4 10.4683H5.14242V14.9497H4V10.4683Z" fill="#191C1F"/>
<path d="M8.725 10.7245C8.725 9.77364 7.92677 9 6.94556 9H4V9.95702H6.80551C7.24956 9.95702 7.61739 10.2954 7.62551 10.7113C7.62957 10.9196 7.549 11.1161 7.39864 11.2648C7.24822 11.4134 7.04724 11.4954 6.83273 11.4954H5.73985C5.70104 11.4954 5.66946 11.526 5.66946 11.5636V12.4142C5.66946 12.4286 5.67407 12.4425 5.68274 12.4541L7.53699 14.9496H8.89434L7.03578 12.4473C7.97175 12.4017 8.725 11.6388 8.725 10.7245Z" fill="#191C1F"/>
<path fill-rule="evenodd" clip-rule="evenodd" d="M11.0765 10.533C11.518 10.533 11.9088 10.6188 12.2379 10.7883C12.5669 10.9577 12.8286 11.2015 13.0156 11.5128C13.2019 11.8238 13.2994 12.1959 13.3053 12.6189C13.3053 12.6815 13.3037 12.7435 13.301 12.8055C13.2977 12.8692 13.2903 12.9326 13.2788 12.994L13.2751 13.0136H9.97304V13.0487C9.98437 13.2729 10.0373 13.4705 10.1305 13.6347C10.2232 13.7983 10.3572 13.9268 10.5284 14.0166C10.7006 14.1069 10.8996 14.1527 11.12 14.1527C11.38 14.1527 11.6045 14.0918 11.7872 13.9717C11.9574 13.86 12.0742 13.7021 12.1344 13.5022L12.1396 13.4851H13.2328L13.2268 13.5136C13.171 13.7816 13.057 14.0279 12.888 14.2457C12.7101 14.4748 12.4722 14.6599 12.1807 14.7958C11.8892 14.9314 11.5498 15.0001 11.1719 15.0001C10.6955 15.0001 10.2769 14.9071 9.92805 14.7237C9.57847 14.5402 9.30503 14.2779 9.11545 13.944C8.92629 13.6109 8.83044 13.219 8.83044 12.7792C8.83044 12.328 8.92484 11.9304 9.11109 11.5977C9.29752 11.2641 9.5635 11.0004 9.90156 10.8138C10.2391 10.6274 10.6344 10.533 11.0765 10.533ZM12.1848 12.2586C12.1419 11.9818 12.0251 11.7639 11.8373 11.6106C11.6432 11.4522 11.3901 11.3719 11.0851 11.3719C10.9047 11.3719 10.7346 11.4094 10.5797 11.4832C10.425 11.5568 10.2952 11.662 10.1939 11.7958C10.0973 11.9234 10.0358 12.079 10.011 12.2586H12.1848Z" fill="#191C1F"/>
<path fill-rule="evenodd" clip-rule="evenodd" d="M33 1H3C1.89543 1 1 1.89543 1 3V21C1 22.1046 1.89543 23 3 23H33C34.1046 23 35 22.1046 35 21V3C35 1.89543 34.1046 1 33 1ZM3 0H33C34.6569 0 36 1.34315 36 3V21C36 22.6569 34.6569 24 33 24H3C1.34315 24 0 22.6569 0 21V3C0 1.34315 1.34315 0 3 0Z" fill="black" fill-opacity="0.07"/>
</svg>
