<svg width="24" height="16" viewBox="0 0 24 16" fill="none" xmlns="http://www.w3.org/2000/svg">
<rect x="0.5" y="0.5" width="23" height="15" rx="3.5" fill="white"/>
<path d="M10.362 5.87948L8.57953 10.1323H7.4166L6.53943 6.73834C6.48618 6.5293 6.43987 6.45272 6.27791 6.36465C6.01349 6.22119 5.57682 6.08661 5.19263 6.00307L5.21872 5.87948H7.09069C7.32931 5.87948 7.54381 6.03832 7.59799 6.31309L8.06125 8.77397L9.20617 5.8794H10.362V5.87948ZM14.9186 8.74377C14.9233 7.62132 13.3665 7.55949 13.3772 7.05808C13.3805 6.90548 13.5258 6.74324 13.8439 6.70183C14.0015 6.68119 14.4358 6.66545 14.9284 6.89215L15.1217 5.99031C14.857 5.89422 14.5164 5.80176 14.0926 5.80176C13.0052 5.80176 12.2399 6.37982 12.2335 7.20756C12.2265 7.8198 12.7797 8.16145 13.1965 8.36489C13.6253 8.57323 13.7692 8.7071 13.7676 8.89346C13.7645 9.17873 13.4256 9.30467 13.1088 9.30963C12.5558 9.31814 12.235 9.16001 11.9792 9.04109L11.7798 9.97279C12.0369 10.0907 12.5113 10.1936 13.0032 10.1988C14.159 10.1988 14.915 9.62788 14.9186 8.74377ZM17.79 10.1323H18.8075L17.9194 5.87948H16.9802C16.7691 5.87948 16.5909 6.00243 16.5121 6.19148L14.8612 10.1323H16.0164L16.2458 9.49705H17.6572L17.79 10.1323ZM16.5625 8.62542L17.1416 7.02865L17.4749 8.62542H16.5625ZM11.9339 5.87948L11.0242 10.1323H9.92407L10.8341 5.87948H11.9339Z" fill="#1434CB"/>
<rect x="0.5" y="0.5" width="23" height="15" rx="3.5" stroke="#CCD2D8"/>
</svg>
